<svg id="グループ_10248" data-name="グループ 10248" xmlns="http://www.w3.org/2000/svg" width="49.466" height="49.43" viewBox="0 0 49.466 49.43">
  <g id="グループ_10247" data-name="グループ 10247" transform="translate(0 0)">
    <g id="グループ_10245" data-name="グループ 10245" transform="translate(6.6 6.564)">
      <path id="パス_4088" data-name="パス 4088" d="M477.18,103.439a21.489,21.489,0,0,0-19.373-13.223,15.658,15.658,0,0,1,2.889,8.332,13.311,13.311,0,0,1,1.842.61,13.516,13.516,0,1,1-18.256,15.85,15.653,15.653,0,0,1-8.347-2.872,21.436,21.436,0,1,0,41.245-8.7Zm-33.095,5.741a13.51,13.51,0,0,1,10.782-10.816,9.891,9.891,0,0,0-4.132-7.113,21.532,21.532,0,0,0-13.781,13.813,10.085,10.085,0,0,0,1.072,1.266A9.852,9.852,0,0,0,444.085,109.181Z" transform="translate(-435.935 -90.216)" fill="#014bb4"/>
    </g>
    <g id="グループ_10246" data-name="グループ 10246">
      <path id="パス_4089" data-name="パス 4089" d="M444.926,82.892a13.669,13.669,0,0,0-5.819-.183,9.868,9.868,0,0,1-10.764,10.8,13.593,13.593,0,0,0,.2,5.818q.37.018.74.017a15.647,15.647,0,0,0,15.666-15.665Q444.945,83.284,444.926,82.892ZM429.279,73.8a9.906,9.906,0,0,1,3.719.722,9.767,9.767,0,0,1,1.983,1.084,21.441,21.441,0,0,1,6.618-1.039c.147,0,.295,0,.441,0a15.674,15.674,0,1,0-21.835,21.884c0-.162-.006-.326-.006-.489a21.434,21.434,0,0,1,1.023-6.571,9.875,9.875,0,0,1,8.056-15.6Z" transform="translate(-413.606 -68.01)" fill="#014bb4"/>
    </g>
  </g>
</svg>
